<svg width="4096" height="4096" viewBox="0 0 4096 4096" fill="none" xmlns="http://www.w3.org/2000/svg">
<path fill-rule="evenodd" clip-rule="evenodd" d="M3018.5 477.5C3030.08 477.317 3035.24 482.984 3034 494.5C3030.72 503.115 3024.55 505.948 3015.5 503C3008.14 493.388 3009.14 484.888 3018.5 477.5Z" fill="#F6F6F6"/>
<path fill-rule="evenodd" clip-rule="evenodd" d="M2558.5 561.5C2572.93 560.764 2578.43 567.431 2575 581.5C2571.37 587.158 2566.21 589.325 2559.5 588C2557.33 587.167 2555.83 585.667 2555 583.5C2551.79 577.886 2550.79 571.886 2552 565.5C2553.79 563.372 2555.96 562.039 2558.5 561.5Z" fill="#F6F7F8"/>
<path fill-rule="evenodd" clip-rule="evenodd" d="M2556.5 566.5C2558.09 569.855 2559.42 573.522 2560.5 577.5C2560.17 577.833 2559.83 578.167 2559.5 578.5C2556.23 574.963 2555.23 570.963 2556.5 566.5Z" fill="#5F555B"/>
<path fill-rule="evenodd" clip-rule="evenodd" d="M2266.5 579.5C2245.15 579.262 2223.82 579.596 2202.5 580.5C2204.63 579.686 2206.96 579.186 2209.5 579C2228.67 578.171 2247.67 578.338 2266.5 579.5Z" fill="#898886"/>
<path fill-rule="evenodd" clip-rule="evenodd" d="M2298.5 580.5C2303.12 580.156 2307.46 580.823 2311.5 582.5C2306.97 582.23 2302.64 581.563 2298.5 580.5Z" fill="#9B9C9E"/>
<path fill-rule="evenodd" clip-rule="evenodd" d="M2385.5 595.5C2388.15 595.41 2390.49 596.076 2392.5 597.5C2389.85 597.59 2387.51 596.924 2385.5 595.5Z" fill="#8B8F92"/>
<path fill-rule="evenodd" clip-rule="evenodd" d="M2345.5 678.5C2380.1 677.797 2413.1 684.631 2444.5 699C2475.29 713.552 2504.29 730.885 2531.5 751C2551.79 766.285 2571.79 781.952 2591.5 798C2603.36 808.858 2614.86 820.025 2626 831.5C2627.2 833.677 2627.7 836.011 2627.5 838.5C2584.99 813.579 2540.65 791.745 2494.5 773C2464.8 761.906 2434.13 756.24 2402.5 756C2373.75 761.283 2362.25 778.449 2368 807.5C2370.63 820.755 2374.96 833.422 2381 845.5C2386.83 856.497 2393.16 867.164 2400 877.5C2438.19 923.535 2472.19 972.535 2502 1024.5C2566.5 1142.2 2572.84 1262.87 2521 1386.5C2510.79 1407.92 2498.79 1428.26 2485 1447.5C2475.53 1456.97 2466.03 1466.47 2456.5 1476C2445.13 1484.68 2432.47 1490.68 2418.5 1494C2397.12 1495.39 2379.62 1487.89 2366 1471.5C2356.33 1456.99 2350.16 1441.16 2347.5 1424C2349.17 1413.14 2352.01 1402.64 2356 1392.5C2357.83 1390.67 2359.67 1388.83 2361.5 1387C2362.83 1386.33 2364.17 1386.33 2365.5 1387C2370.19 1395.39 2374.69 1403.89 2379 1412.5C2385.01 1419.85 2392.17 1425.68 2400.5 1430C2410.93 1430.96 2420.6 1428.62 2429.5 1423C2436 1416.5 2442.5 1410 2449 1403.5C2483.88 1348.68 2501.04 1288.68 2500.5 1223.5C2499.25 1147.26 2477.42 1077.6 2435 1014.5C2409.84 975.574 2380.84 939.574 2348 906.5C2332.96 889.125 2318.29 871.458 2304 853.5C2289.07 832.961 2278.4 810.295 2272 785.5C2267.87 749.609 2279.04 719.442 2305.5 695C2317.46 685.843 2330.8 680.343 2345.5 678.5Z" fill="#FDFDFD"/>
<path fill-rule="evenodd" clip-rule="evenodd" d="M3286.5 754.5C3288.75 754.916 3290.25 756.249 3291 758.5C3293.13 764.811 3295.13 771.144 3297 777.5C3300.12 781.642 3304.29 783.476 3309.5 783C3312.36 784.786 3313.03 787.119 3311.5 790C3307.5 790.333 3303.5 790.667 3299.5 791C3299 791.5 3298.5 792 3298 792.5C3295.45 800.593 3292.62 808.593 3289.5 816.5C3286.62 808.406 3283.46 800.406 3280 792.5C3275 792.462 3270.83 790.629 3267.5 787C3270.61 781.558 3274.77 777.058 3280 773.5C3282.38 767.206 3284.54 760.873 3286.5 754.5Z" fill="#F6F6F7"/>
<path fill-rule="evenodd" clip-rule="evenodd" d="M1350.5 820.5C1355.18 821.325 1359.35 823.325 1363 826.5C1365.1 838.387 1360.27 843.887 1348.5 843C1344.35 839.238 1341.68 834.571 1340.5 829C1343.42 825.575 1346.75 822.742 1350.5 820.5Z" fill="#F5F6F6"/>
<path fill-rule="evenodd" clip-rule="evenodd" d="M2154.5 871.5C2176.99 871.813 2198.65 876.647 2219.5 886C2250.23 902.061 2276.06 923.894 2297 951.5C2336.86 1007.56 2356.36 1070.23 2355.5 1139.5C2357.06 1184.87 2348.56 1228.2 2330 1269.5C2318.7 1293.77 2305.36 1316.77 2290 1338.5C2262.68 1370.18 2239.68 1404.85 2221 1442.5C2215.38 1456.36 2212.22 1470.7 2211.5 1485.5C2212.74 1507.06 2218.57 1527.39 2229 1546.5C2241.82 1568.93 2257.65 1589.1 2276.5 1607C2294.24 1623.36 2313.24 1638.03 2333.5 1651C2334.69 1652.02 2335.69 1653.19 2336.5 1654.5C2333.55 1655.65 2330.55 1655.82 2327.5 1655C2271.71 1642.44 2221.05 1619.1 2175.5 1585C2167.35 1578.09 2159.02 1571.43 2150.5 1565C2141.09 1554.58 2131.25 1544.42 2121 1534.5C2109.28 1519.73 2099.62 1503.73 2092 1486.5C2091.17 1481.04 2089.84 1475.7 2088 1470.5C2087.33 1464.5 2087.33 1458.5 2088 1452.5C2092.55 1426.08 2103.55 1402.74 2121 1382.5C2121.56 1380.27 2122.56 1378.27 2124 1376.5C2144.56 1355.27 2165.73 1334.77 2187.5 1315C2200.56 1301.03 2213.73 1287.2 2227 1273.5C2264.77 1225.11 2280.77 1170.11 2275 1108.5C2268.3 1067.11 2252.3 1029.77 2227 996.5C2185.16 952.265 2133.66 931.599 2072.5 934.5C2058.44 934.317 2044.44 934.983 2030.5 936.5C2031.18 932.813 2032.68 929.48 2035 926.5C2042.96 916.204 2052.46 907.704 2063.5 901C2074.08 896.07 2084.41 890.737 2094.5 885C2114.13 878.111 2134.13 873.611 2154.5 871.5Z" fill="#FDFDFD"/>
<path fill-rule="evenodd" clip-rule="evenodd" d="M2571.5 923.5C2586.79 932.162 2601.13 942.329 2614.5 954C2677.73 1013.62 2715.06 1086.46 2726.5 1172.5C2712.73 1159.57 2700.23 1145.57 2689 1130.5C2685.9 1126.73 2682.24 1123.73 2678 1121.5C2677.05 1121.91 2676.39 1122.57 2676 1123.5C2670.12 1140.6 2664.12 1157.6 2658 1174.5C2655.44 1180.63 2652.6 1186.63 2649.5 1192.5C2645.38 1171.74 2643.21 1150.74 2643 1129.5C2639.63 1095.64 2632.29 1062.64 2621 1030.5C2606.61 993.73 2590.11 958.063 2571.5 923.5Z" fill="#FCFCFC"/>
<path fill-rule="evenodd" clip-rule="evenodd" d="M728.5 955.5C734.397 956.521 739.23 959.521 743 964.5C743.79 967.634 743.457 970.634 742 973.5C739.056 974.723 736.556 976.556 734.5 979C732.5 979.667 730.5 979.667 728.5 979C723.089 974.997 720.256 969.83 720 963.5C722.729 960.601 725.562 957.934 728.5 955.5Z" fill="#F5F6F6"/>
<path fill-rule="evenodd" clip-rule="evenodd" d="M1745.5 1403.5C1735.18 1404.08 1724.84 1404.41 1714.5 1404.5C1714.17 1404.5 1713.83 1404.5 1713.5 1404.5C1709.35 1403.68 1705.02 1403.18 1700.5 1403C1701.06 1402.62 1701.39 1402.12 1701.5 1401.5C1734.85 1390.9 1768.51 1380.74 1802.5 1371C1843.16 1356.5 1883.5 1341.17 1923.5 1325C1967.86 1305 2009.53 1280.66 2048.5 1252C2075.34 1228.86 2095.5 1201.02 2109 1168.5C2122.7 1128.26 2114.53 1093.09 2084.5 1063C2064.7 1046.79 2042.03 1037.29 2016.5 1034.5C2016.05 1030.78 2017.72 1028.61 2021.5 1028C2053.58 1020.54 2084.25 1024.54 2113.5 1040C2131.33 1051.17 2145.83 1065.67 2157 1083.5C2179.57 1117.25 2189.57 1154.59 2187 1195.5C2184.92 1205.82 2181.92 1215.82 2178 1225.5C2173.76 1233.32 2170.09 1241.32 2167 1249.5C2150.5 1271.33 2131.33 1290.5 2109.5 1307C2079.87 1325.89 2048.53 1341.56 2015.5 1354C1952.45 1376.34 1887.79 1392.34 1821.5 1402C1796.19 1403.32 1770.85 1403.82 1745.5 1403.5Z" fill="#FCFDFD"/>
<path fill-rule="evenodd" clip-rule="evenodd" d="M1786.5 1149.5C1787.83 1149.5 1789.17 1149.5 1790.5 1149.5C1790.86 1151.91 1789.86 1153.41 1787.5 1154C1750.11 1161.79 1715.11 1175.46 1682.5 1195C1675.78 1200.72 1668.78 1206.05 1661.5 1211C1625.8 1245.34 1594.63 1283.17 1568 1324.5C1556.5 1336 1545 1347.5 1533.5 1359C1510.28 1376.26 1484.28 1382.93 1455.5 1379C1444.89 1377.03 1434.89 1373.36 1425.5 1368C1421.65 1365.35 1419.32 1361.85 1418.5 1357.5C1424.35 1359.58 1430.35 1361.41 1436.5 1363C1443.17 1363.67 1449.83 1363.67 1456.5 1363C1463.83 1361 1471.16 1359 1478.5 1357C1494.04 1350.15 1508.04 1340.82 1520.5 1329C1537.15 1313.02 1552.32 1295.85 1566 1277.5C1578.83 1256.34 1592.83 1236.01 1608 1216.5C1627.39 1194.23 1650.89 1178.07 1678.5 1168C1701.33 1160.37 1724.67 1155.03 1748.5 1152C1761.36 1151.82 1774.03 1150.98 1786.5 1149.5Z" fill="#FAFAFA"/>
<path fill-rule="evenodd" clip-rule="evenodd" d="M1093.5 1157.5C1093.15 1161.68 1092.48 1165.68 1091.5 1169.5C1091.08 1165.18 1091.75 1161.18 1093.5 1157.5Z" fill="#9D9D9F"/>
<path d="M2491.5 393.5C2490.15 387.032 2492.82 384.866 2499.5 387C2579.08 413.616 2655.08 447.949 2727.5 490C2791.65 528.414 2852.32 571.747 2909.5 620C2933.57 640.398 2956.74 661.898 2979 684.5C3050.48 760.544 3114.48 842.211 3171 929.5C3217.27 1003.53 3259.94 1079.87 3299 1158.5C3328.42 1222.78 3355.09 1288.11 3379 1354.5C3431.73 1515.58 3456.73 1680.91 3454 1850.5C3452.43 1873.89 3450.93 1897.22 3449.5 1920.5C3447.76 1925.22 3447.1 1930.22 3447.5 1935.5C3430.53 2119.27 3384.03 2294.94 3308 2462.5C3283.5 2511.95 3256.16 2559.62 3226 2605.5C3214.99 2620.66 3203.83 2635.66 3192.5 2650.5C3191.35 2647.55 3191.18 2644.55 3192 2641.5C3195.67 2635.5 3199.33 2629.5 3203 2623.5C3243.35 2539.44 3278.02 2453.1 3307 2364.5C3320.96 2314.66 3330.46 2263.99 3335.5 2212.5C3336.81 2207.38 3337.47 2202.05 3337.5 2196.5C3339.07 2176.72 3339.74 2156.89 3339.5 2137C3339.33 2121.5 3339.17 2106 3339 2090.5C3338.77 2086.42 3338.27 2082.42 3337.5 2078.5C3337.71 2071.6 3337.04 2064.94 3335.5 2058.5C3331.46 1998.05 3318.96 1939.38 3298 1882.5C3261.2 1786.36 3206.04 1702.52 3132.5 1631C3103.08 1605.46 3071.41 1583.13 3037.5 1564C3007.53 1548.58 2975.87 1537.92 2942.5 1532C2922.17 1530.09 2901.84 1530.09 2881.5 1532C2868.58 1535.97 2856.25 1541.31 2844.5 1548C2822.73 1568.2 2815.56 1592.7 2823 1621.5C2827.12 1638.41 2834.46 1653.75 2845 1667.5C2851.37 1674.21 2857.37 1681.21 2863 1688.5C2870.17 1695.67 2877.33 1702.83 2884.5 1710C2941.29 1758.17 2988.79 1814.01 3027 1877.5C3033.81 1892.45 3041.14 1907.11 3049 1921.5C3058.62 1943.04 3066.62 1965.04 3073 1987.5C3073.71 1988.97 3074.88 1989.64 3076.5 1989.5C3076.68 1954.82 3076.18 1920.16 3075 1885.5C3072.54 1868.13 3069.87 1850.79 3067 1833.5C3062.68 1816.22 3058.35 1798.89 3054 1781.5C3041.51 1744.18 3028.34 1707.18 3014.5 1670.5C3015.55 1670.35 3016.55 1670.52 3017.5 1671C3053.48 1705.15 3081.98 1744.65 3103 1789.5C3122.62 1832.89 3135.95 1878.23 3143 1925.5C3153.54 2009.11 3141.21 2089.11 3106 2165.5C3098.1 2182.31 3089.43 2198.64 3080 2214.5C3076.08 2134.15 3058.42 2056.82 3027 1982.5C3000.41 1926.91 2964.91 1877.74 2920.5 1835C2909.58 1826.75 2899.24 1817.75 2889.5 1808C2854.06 1781.2 2818.9 1754.03 2784 1726.5C2766.34 1706.53 2751.68 1684.53 2740 1660.5C2734.98 1647.11 2730.98 1633.45 2728 1619.5C2727.82 1601.12 2727.32 1582.79 2726.5 1564.5C2727.93 1563.77 2729.1 1562.77 2730 1561.5C2739.03 1515.81 2764.53 1482.98 2806.5 1463C2811.81 1461.05 2817.14 1459.05 2822.5 1457C2843.85 1451.78 2865.52 1450.12 2887.5 1452C2922.09 1456.48 2956.09 1463.81 2989.5 1474C3017.71 1481.6 3046.38 1484.6 3075.5 1483C3144.25 1468.57 3182.75 1426.41 3191 1356.5C3191.67 1336.83 3191.67 1317.17 3191 1297.5C3184.95 1255.9 3167.12 1220.4 3137.5 1191C3124.62 1179.89 3109.95 1171.89 3093.5 1167C3062.92 1162.54 3039.42 1173.37 3023 1199.5C3011.97 1218.45 3008.31 1238.78 3012 1260.5C3017.64 1286.31 3031.14 1306.81 3052.5 1322C3063.57 1328.02 3075.24 1331.02 3087.5 1331C3098.08 1329.63 3106.58 1324.8 3113 1316.5C3115.23 1311.71 3117.73 1307.04 3120.5 1302.5C3121.32 1301.61 3122.32 1301.28 3123.5 1301.5C3127.21 1327.23 3118.54 1347.4 3097.5 1362C3071.39 1372.91 3046.72 1370.25 3023.5 1354C3001.07 1336.65 2986.57 1314.15 2980 1286.5C2979.45 1276.4 2978.11 1266.4 2976 1256.5C2975.33 1252.17 2975.33 1247.83 2976 1243.5C2978.37 1233.64 2979.71 1223.64 2980 1213.5C2988.13 1183.44 2996.46 1153.44 3005 1123.5C3011.22 1094.07 3015.88 1064.4 3019 1034.5C3019.67 1009.5 3019.67 984.5 3019 959.5C3007.85 885.521 2979.85 818.521 2935 758.5C2926.9 749.741 2919.57 740.407 2913 730.5C2906.83 724.333 2900.67 718.167 2894.5 712C2893.21 711.51 2891.87 711.343 2890.5 711.5C2900.42 732.425 2909.25 753.759 2917 775.5C2950.76 877.157 2957.76 980.823 2938 1086.5C2922.46 1167.89 2890.79 1242.23 2843 1309.5C2835.9 1317.64 2829.07 1325.97 2822.5 1334.5C2806.01 1350.49 2789.68 1366.65 2773.5 1383C2742.85 1406.98 2714.01 1433.15 2687 1461.5C2681.38 1469.45 2675.38 1477.12 2669 1484.5C2654.44 1506.51 2644.77 1530.51 2640 1556.5C2635.93 1603.64 2647.6 1646.3 2675 1684.5C2690.4 1700.89 2705.4 1717.56 2720 1734.5C2726.21 1738.86 2731.04 1744.19 2734.5 1750.5C2695.74 1740.78 2660.74 1723.62 2629.5 1699C2580.07 1656.29 2559.57 1602.46 2568 1537.5C2572.31 1519.23 2578.98 1501.9 2588 1485.5C2595.94 1472.56 2604.27 1459.9 2613 1447.5C2635.7 1420.79 2659.87 1395.29 2685.5 1371C2690.48 1366.51 2695.81 1362.51 2701.5 1359L2767 1293.5C2810.84 1239.83 2841.5 1179.16 2859 1111.5C2874.4 1050.42 2881.07 988.419 2879 925.5C2874.15 858.114 2856.82 794.114 2827 733.5C2808.38 693.569 2785.71 656.235 2759 621.5C2744 603.833 2729 586.167 2714 568.5C2697.11 551.613 2680.28 534.779 2663.5 518C2635.35 494.76 2607.02 471.76 2578.5 449C2550.74 428.461 2521.74 409.961 2491.5 393.5ZM3192 1113.5C3191.68 1115.55 3192.01 1117.55 3193 1119.5C3228.1 1201.58 3249.27 1287.24 3256.5 1376.5C3257.89 1381.27 3258.56 1386.27 3258.5 1391.5C3259.63 1428.82 3259.8 1466.15 3259 1503.5C3256.34 1529.94 3254.5 1556.44 3253.5 1583C3254.5 1606.17 3259.67 1628.34 3269 1649.5C3278.49 1667.16 3288.49 1684.49 3299 1701.5C3321.62 1745.06 3341.12 1789.72 3357.5 1835.5C3358.17 1804.17 3358.83 1772.83 3359.5 1741.5C3358.51 1567.55 3325.01 1400.21 3259 1239.5C3249.27 1218.38 3239.27 1197.38 3229 1176.5C3217.93 1154.68 3205.59 1133.68 3192 1113.5Z" fill="#FDFDFD"/>
<path d="M1803.5 280.5C1804.68 280.281 1805.68 280.614 1806.5 281.5C1817.91 296.081 1828.75 311.081 1839 326.5C1847.95 344.42 1852.79 363.42 1853.5 383.5C1852.66 393.942 1851.16 404.275 1849 414.5C1834.29 458.652 1814.95 500.652 1791 540.5C1783.24 551.677 1775.24 562.677 1767 573.5C1746.7 596.463 1725.7 618.797 1704 640.5C1688.4 659.79 1674.73 680.456 1663 702.5C1644.31 739.945 1636.64 779.612 1640 821.5C1642.82 827.169 1647.32 829.002 1653.5 827C1658.5 824.46 1663.83 822.794 1669.5 822C1688.66 812.918 1707.66 803.584 1726.5 794C1748.33 778.833 1766.83 760.333 1782 738.5C1787.37 727.814 1792.7 717.147 1798 706.5C1806.66 683.508 1812.66 659.841 1816 635.5C1823.66 595.86 1839.66 560.193 1864 528.5C1878.83 513.667 1893.67 498.833 1908.5 484C1931.83 466 1955.17 448 1978.5 430C1990.87 417.965 2003.53 406.299 2016.5 395C2033.45 377.229 2049.78 359.063 2065.5 340.5C2065.83 342.167 2066.17 343.833 2066.5 345.5C2062.8 381.291 2053.64 415.624 2039 448.5C2019.91 480.259 1997.08 509.092 1970.5 535C1959.53 544.638 1948.53 554.304 1937.5 564C1921.2 575.283 1906.37 588.45 1893 603.5C1881.47 619.907 1873.13 637.907 1868 657.5C1865.37 681.272 1862.03 704.938 1858 728.5C1853.68 746.803 1847.01 764.136 1838 780.5C1832.93 786.313 1828.59 792.646 1825 799.5C1812.32 813.072 1799.15 826.072 1785.5 838.5C1787.07 839.631 1788.74 839.798 1790.5 839C1815.05 827.754 1838.05 814.088 1859.5 798C1870.25 787.577 1880.75 776.744 1891 765.5C1896.58 758.008 1901.91 750.341 1907 742.5C1919.8 719.238 1931.8 695.572 1943 671.5C1965.23 632.262 1995.4 600.429 2033.5 576C2063.23 557.135 2095.23 543.801 2129.5 536C2218.55 518.77 2303.55 530.77 2384.5 572C2395.49 578.495 2406.82 584.495 2418.5 590C2425.1 593.548 2431.27 597.714 2437 602.5C2438.16 605.567 2437.16 607.233 2434 607.5C2420.06 604.216 2406.23 600.882 2392.5 597.5C2390.49 596.076 2388.15 595.41 2385.5 595.5C2360.99 590.399 2336.32 586.065 2311.5 582.5C2307.46 580.823 2303.12 580.156 2298.5 580.5C2287.85 579.85 2277.18 579.516 2266.5 579.5C2247.67 578.338 2228.67 578.171 2209.5 579C2206.96 579.186 2204.63 579.686 2202.5 580.5C2108 591.815 2035.83 637.815 1986 718.5C1973.08 744.674 1959.42 770.341 1945 795.5C1937.33 805.833 1929.67 816.167 1922 826.5C1916.96 831.709 1911.79 836.709 1906.5 841.5C1909.82 842.946 1912.82 842.446 1915.5 840C1920.83 839.667 1926.17 839.333 1931.5 839C1972.72 830.724 2010.72 814.724 2045.5 791C2059.83 778.343 2072.33 764.176 2083 748.5C2091.46 733.218 2100.13 718.218 2109 703.5C2109.77 703.645 2110.44 703.978 2111 704.5C2111.53 709.102 2113.03 713.269 2115.5 717C2112.65 727.99 2110.81 739.157 2110 750.5C2100.13 789.411 2080.63 822.577 2051.5 850C2043.89 856.607 2036.56 863.607 2029.5 871C1983.41 902.378 1932.74 922.045 1877.5 930C1867.19 931.423 1856.86 932.59 1846.5 933.5C1857.25 939.063 1867.92 944.896 1878.5 951C1894.48 960.98 1908.65 973.146 1921 987.5C1941.54 1020.61 1945.21 1055.61 1932 1092.5C1925.99 1103.21 1919.49 1113.54 1912.5 1123.5C1912.36 1114.48 1910.86 1105.81 1908 1097.5C1905.32 1080.99 1897.16 1067.83 1883.5 1058C1851.37 1037.3 1816.7 1031.3 1779.5 1040C1760.97 1046.1 1743.3 1054.1 1726.5 1064C1688.89 1086.86 1651.22 1109.53 1613.5 1132C1581.87 1148.87 1549.2 1163.2 1515.5 1175C1486.38 1186.12 1459.38 1200.79 1434.5 1219C1425.36 1227.14 1416.53 1235.64 1408 1244.5C1397.27 1260.62 1389.27 1277.95 1384 1296.5C1383.33 1316.5 1383.33 1336.5 1384 1356.5C1387.48 1373.73 1391.64 1390.73 1396.5 1407.5C1390.24 1405.72 1383.9 1403.88 1377.5 1402C1359.25 1393.54 1341.92 1383.54 1325.5 1372C1318.42 1364.91 1310.75 1358.58 1302.5 1353C1286.48 1338.06 1271.98 1321.89 1259 1304.5C1252.95 1295.06 1247.95 1285.06 1244 1274.5C1241.13 1250.76 1243.8 1227.76 1252 1205.5C1258.12 1190.57 1265.29 1176.24 1273.5 1162.5C1277.62 1167.79 1281.95 1172.95 1286.5 1178C1289.5 1179.67 1292.5 1181.33 1295.5 1183C1297.5 1183.67 1299.5 1183.67 1301.5 1183C1306.3 1181.1 1310.64 1178.43 1314.5 1175C1333.73 1155.44 1352.56 1135.61 1371 1115.5C1387.49 1096.02 1402.82 1075.68 1417 1054.5C1422.85 1044.14 1428.18 1033.48 1433 1022.5C1434.09 991.616 1442.09 962.616 1457 935.5C1463.64 924.542 1470.64 913.875 1478 903.5C1491.05 889.113 1504.72 875.446 1519 862.5C1529.78 848.26 1536.78 832.26 1540 814.5C1547.37 788.689 1555.37 763.023 1564 737.5C1578.66 701.856 1598.66 669.522 1624 640.5C1666.33 598.167 1708.67 555.833 1751 513.5C1768.21 493.63 1783.87 472.63 1798 450.5C1809.89 430.145 1818.23 408.478 1823 385.5C1823.67 369.5 1823.67 353.5 1823 337.5C1818.66 320.168 1812.66 303.501 1805 287.5C1804.02 285.26 1803.52 282.927 1803.5 280.5ZM1347 1257.5C1342.45 1245.97 1333.95 1241.3 1321.5 1243.5C1318.65 1245.08 1315.65 1246.58 1312.5 1248L1305 1255.5C1302.31 1261.82 1303.48 1267.32 1308.5 1272C1316.32 1278.08 1324.32 1283.91 1332.5 1289.5C1337.83 1280.85 1342.66 1271.85 1347 1262.5C1347.67 1260.83 1347.67 1259.17 1347 1257.5ZM1696.5 903.5C1694.95 902.548 1693.29 902.215 1691.5 902.5C1662.21 913.006 1632.88 923.84 1603.5 935C1577.92 946.172 1555.09 961.338 1535 980.5C1529.82 988.848 1525.16 997.515 1521 1006.5C1519.95 1010.27 1518.62 1013.93 1517 1017.5C1512.78 1033.26 1510.28 1049.26 1509.5 1065.5C1511.07 1066.63 1512.74 1066.8 1514.5 1066C1540.89 1054.8 1566.22 1041.47 1590.5 1026C1597.37 1019.47 1603.87 1012.64 1610 1005.5C1615.35 995.468 1620.68 985.468 1626 975.5C1638.98 957.509 1653.82 941.009 1670.5 926C1679.93 919.405 1688.6 911.905 1696.5 903.5Z" fill="#FDFDFD"/>
<path d="M1538.5 462C1541.38 459.493 1544.54 458.993 1548 460.5C1548.82 462.701 1548.32 464.534 1546.5 466C1509.62 486.265 1474.62 509.265 1441.5 535C1420.5 553.333 1399.5 571.667 1378.5 590C1371.67 596.833 1364.83 603.667 1358 610.5C1339 632.167 1320 653.833 1301 675.5C1270.7 716.085 1242.36 758.085 1216 801.5C1192.03 848.108 1169.69 895.441 1149 943.5C1134.96 980.919 1122.63 1018.92 1112 1057.5C1103.79 1090.44 1097.62 1123.77 1093.5 1157.5C1091.75 1161.18 1091.08 1165.18 1091.5 1169.5C1081.56 1282.91 1090.06 1394.91 1117 1505.5C1123.64 1526.79 1130.3 1548.12 1137 1569.5C1160.74 1627.63 1183.9 1685.97 1206.5 1744.5C1206.17 1745.17 1205.83 1745.83 1205.5 1746.5L1202.5 1745C1183.17 1728.33 1163.83 1711.67 1144.5 1695L1089.5 1640C1075.66 1628.58 1060.66 1618.91 1044.5 1611C1005.37 1596.83 968.708 1601.49 934.5 1625C919.098 1637.4 904.597 1650.9 891 1665.5C861.101 1709.3 838.1 1756.64 822 1807.5C808.821 1851.06 798.82 1895.39 792 1940.5C781.687 2013.83 778.02 2087.5 781 2161.5C783.009 2187.62 785.675 2213.62 789 2239.5C799.666 2334.84 824.667 2426.17 864 2513.5C874.645 2533.79 884.479 2554.46 893.5 2575.5C887.835 2576.72 883.334 2575.06 880 2570.5C813.601 2488.34 758.933 2398.67 716 2301.5C640.999 2118.33 614.166 1928.33 635.5 1731.5C636.889 1726.73 637.556 1721.73 637.5 1716.5C651.302 1596.66 677.803 1479.66 717 1365.5C738.487 1304.54 762.155 1244.54 788 1185.5C824.062 1110.02 864.73 1037.35 910 967.5C942.847 921.649 976.848 876.649 1012 832.5C1023.08 821.428 1033.41 809.761 1043 797.5C1075.83 764.667 1108.67 731.833 1141.5 699C1185.44 660.384 1231.1 624.051 1278.5 590C1339.26 547.947 1403.92 512.614 1472.5 484C1487.87 478.543 1503.2 472.877 1518.5 467C1524.95 464.48 1531.62 462.814 1538.5 462ZM913.5 1342.5C911.693 1342.49 910.025 1342.99 908.5 1344C883.094 1368.73 860.427 1395.57 840.5 1424.5C839.921 1426.75 838.587 1428.42 836.5 1429.5C829.445 1438.59 822.61 1447.92 816 1457.5C701.73 1634.89 663.063 1827.89 700 2036.5C711.334 2090.72 726.502 2143.72 745.5 2195.5C746.491 2189.02 746.824 2182.35 746.5 2175.5C745.102 2166.24 744.268 2156.91 744 2147.5C735.604 1901.21 780.271 1665.21 878 1439.5C889.581 1406.91 901.414 1374.58 913.5 1342.5ZM1079.5 910.5C1072.6 915.898 1066.1 921.898 1060 928.5C1034.78 959.942 1010.78 992.275 988 1025.5C962.265 1068.64 945.264 1114.97 937 1164.5C935.929 1174.96 935.429 1185.46 935.5 1196C936.304 1230.6 941.805 1264.43 952 1297.5C965.351 1334.85 980.685 1371.52 998 1407.5C1010.64 1429.44 1023.31 1451.44 1036 1473.5C1049.61 1492.78 1063.61 1511.78 1078 1530.5C1080.21 1533.56 1083.04 1535.56 1086.5 1536.5C1079.38 1516.65 1072.55 1496.65 1066 1476.5C1055.52 1437.59 1045.52 1398.59 1036 1359.5C1030.71 1333.11 1026.71 1306.44 1024 1279.5C1024.12 1265.92 1022.78 1252.59 1020 1239.5C1019.83 1227.5 1019.67 1215.5 1019.5 1203.5C1019.82 1130.92 1030.65 1059.92 1052 990.5C1058.51 967.979 1067.17 946.313 1078 925.5C1080.21 920.696 1081.71 915.696 1082.5 910.5H1079.5Z" fill="#FDFDFD"/>
<path fill-rule="evenodd" clip-rule="evenodd" d="M3256.5 1376.5C3257.89 1381.27 3258.56 1386.27 3258.5 1391.5C3256.97 1386.75 3256.3 1381.75 3256.5 1376.5Z" fill="#7D7D7F"/>
<path fill-rule="evenodd" clip-rule="evenodd" d="M1701.5 1401.5C1701.39 1402.12 1701.06 1402.62 1700.5 1403C1705.02 1403.18 1709.35 1403.68 1713.5 1404.5C1709.14 1404.76 1704.8 1404.92 1700.5 1405C1699.02 1403.24 1699.35 1402.08 1701.5 1401.5Z" fill="#B9B8BE"/>
<path fill-rule="evenodd" clip-rule="evenodd" d="M1745.5 1403.5C1744.74 1404.27 1743.74 1404.77 1742.5 1405C1732.99 1405.82 1723.66 1405.66 1714.5 1404.5C1724.84 1404.41 1735.18 1404.08 1745.5 1403.5Z" fill="#9D9DA7"/>
<path fill-rule="evenodd" clip-rule="evenodd" d="M3529.5 1419.5C3536.21 1418.41 3542.04 1420.07 3547 1424.5C3549.67 1438.83 3543.83 1445 3529.5 1443C3523.63 1439.06 3521.46 1433.56 3523 1426.5C3524.69 1423.64 3526.86 1421.31 3529.5 1419.5Z" fill="#F5F6F6"/>
<path fill-rule="evenodd" clip-rule="evenodd" d="M840.5 1424.5C839.92 1426.75 838.587 1428.42 836.5 1429.5C837.08 1427.25 838.413 1425.58 840.5 1424.5Z" fill="#505050"/>
<path fill-rule="evenodd" clip-rule="evenodd" d="M1866.5 1467.5C1836.16 1467.34 1805.83 1467.68 1775.5 1468.5C1792.8 1466.95 1810.3 1466.29 1828 1466.5C1841 1466.5 1853.84 1466.83 1866.5 1467.5Z" fill="#818180"/>
<path fill-rule="evenodd" clip-rule="evenodd" d="M1866.5 1467.5C1890.22 1468.26 1912.89 1473.43 1934.5 1483C1935.73 1484.18 1935.73 1485.35 1934.5 1486.5C1901.54 1493.15 1868.54 1499.48 1835.5 1505.5C1832.22 1505.42 1829.22 1506.09 1826.5 1507.5C1758.38 1520.22 1690.04 1531.72 1621.5 1542C1553.58 1552.56 1487.24 1569.23 1422.5 1592C1403.12 1599.85 1384.79 1609.52 1367.5 1621C1365.04 1625.23 1361.37 1627.4 1356.5 1627.5C1357.11 1624.28 1358.28 1621.28 1360 1618.5C1372.79 1595.7 1389.29 1575.86 1409.5 1559C1451.6 1527.96 1498.26 1506.62 1549.5 1495C1567.93 1490.54 1586.59 1486.87 1605.5 1484C1653.09 1477.88 1700.76 1472.88 1748.5 1469C1757.49 1468.5 1766.49 1468.33 1775.5 1468.5C1805.83 1467.68 1836.16 1467.34 1866.5 1467.5Z" fill="#FCFCFC"/>
<path fill-rule="evenodd" clip-rule="evenodd" d="M2069.5 1719.5C2069.41 1720.5 2069.75 1721.33 2070.5 1722C2058.5 1722.5 2046.5 1722.67 2034.5 1722.5C1999.31 1720.04 1964.14 1720.04 1929 1722.5C1922.91 1723.34 1920.08 1720.67 1920.5 1714.5C1921.82 1711.16 1921.82 1707.82 1920.5 1704.5C1920.55 1700.8 1920.89 1697.14 1921.5 1693.5C1922.92 1680.73 1926.09 1668.4 1931 1656.5C1937.72 1640.66 1945.39 1625.33 1954 1610.5C1966.42 1590.66 1979.08 1571 1992 1551.5C1998.96 1542.87 2006.29 1534.54 2014 1526.5C2021.87 1514.95 2030.87 1504.29 2041 1494.5C2042.5 1502.34 2044.84 1510.01 2048 1517.5C2070.96 1567.62 2104.46 1609.12 2148.5 1642C2162.53 1652.02 2177.2 1661.02 2192.5 1669C2231.33 1688.16 2270.66 1706.16 2310.5 1723C2338.69 1736.1 2366.03 1750.76 2392.5 1767C2411.68 1781.84 2431.68 1795.51 2452.5 1808C2466.01 1815.97 2480.35 1817.97 2495.5 1814C2499.1 1811.29 2501.6 1807.79 2503 1803.5C2503.67 1794.83 2503.67 1786.17 2503 1777.5C2499.3 1758.38 2493.3 1740.04 2485 1722.5C2464.71 1679.9 2440.38 1639.9 2412 1602.5C2411.52 1601.55 2411.35 1600.55 2411.5 1599.5C2463.75 1625.39 2505.92 1662.72 2538 1711.5C2559.58 1744.91 2573.25 1781.24 2579 1820.5C2579.67 1830.5 2579.67 1840.5 2579 1850.5C2575.35 1866.46 2567.85 1880.3 2556.5 1892C2544.64 1899.88 2531.64 1903.55 2517.5 1903C2498.61 1899.15 2480.94 1892.15 2464.5 1882C2451.99 1872.91 2439.65 1863.58 2427.5 1854C2406.47 1832.64 2385.8 1810.97 2365.5 1789C2347.73 1774.56 2329.4 1760.9 2310.5 1748C2288.44 1736.64 2265.44 1727.64 2241.5 1721C2213.46 1715.88 2185.46 1710.55 2157.5 1705C2131.94 1697.55 2108.6 1685.88 2087.5 1670C2077.22 1660.73 2068.06 1650.56 2060 1639.5C2053.32 1625.3 2045.48 1611.8 2036.5 1599C2035.06 1598.22 2033.72 1598.39 2032.5 1599.5C2028.87 1609.88 2027.7 1620.55 2029 1631.5C2032 1665.83 2045.5 1695.16 2069.5 1719.5Z" fill="#FDFDFD"/>
<path fill-rule="evenodd" clip-rule="evenodd" d="M1835.5 1505.5C1832.78 1506.91 1829.78 1507.58 1826.5 1507.5C1829.22 1506.09 1832.22 1505.42 1835.5 1505.5Z" fill="#515352"/>
<path d="M1986.5 1500.5C1987.55 1500.35 1988.55 1500.52 1989.5 1501C1952.1 1550.33 1914.6 1599.5 1877 1648.5C1851.19 1686.76 1825.86 1725.42 1801 1764.5C1733.83 1875.17 1669.49 1987.51 1608 2101.5C1599.92 2114.66 1592.58 2128.32 1586 2142.5C1580.07 2152.03 1574.4 2161.7 1569 2171.5C1566.35 2175.07 1563.19 2178.07 1559.5 2180.5C1558.19 2179.69 1557.02 2178.69 1556 2177.5C1546.12 2153.73 1536.78 2129.73 1528 2105.5C1508.55 2041.27 1488.22 1977.27 1467 1913.5C1439.51 1836.53 1411.34 1759.86 1382.5 1683.5C1391.88 1683.82 1401.22 1683.32 1410.5 1682C1437.14 1676.76 1463.47 1670.42 1489.5 1663C1635.7 1615.78 1782.37 1569.78 1929.5 1525C1946.11 1519.46 1962.44 1513.13 1978.5 1506C1981.07 1503.91 1983.74 1502.08 1986.5 1500.5ZM1687 1757.5C1690.7 1700.7 1664.2 1674.7 1607.5 1679.5C1605.49 1680.92 1603.15 1681.59 1600.5 1681.5C1593.26 1683.79 1586.26 1686.62 1579.5 1690C1567.2 1697.29 1556.37 1706.46 1547 1717.5C1542.51 1722.81 1539.35 1728.81 1537.5 1735.5C1537.77 1740.43 1537.1 1745.1 1535.5 1749.5V1765.5C1539.13 1765.84 1542.46 1765.01 1545.5 1763L1569.5 1739C1577.56 1732.97 1586.56 1729.14 1596.5 1727.5C1601.21 1729.01 1605.88 1730.84 1610.5 1733L1622 1744.5C1623.59 1751.73 1623.93 1759.06 1623 1766.5C1619.5 1772.17 1616 1777.83 1612.5 1783.5C1600.44 1796.05 1588.94 1809.05 1578 1822.5C1558.37 1840.44 1541.37 1860.44 1527 1882.5C1521.98 1890.55 1518.31 1899.22 1516 1908.5C1515.5 1920.16 1515.33 1931.83 1515.5 1943.5C1527.83 1944.61 1540.16 1945.78 1552.5 1947C1568.17 1947.67 1583.83 1947.67 1599.5 1947C1636.87 1940.29 1662.04 1919.12 1675 1883.5C1675.67 1876.83 1675.67 1870.17 1675 1863.5C1674.28 1862.94 1673.44 1862.61 1672.5 1862.5C1667.89 1864.14 1663.56 1866.3 1659.5 1869C1648.85 1880.66 1636.18 1889.32 1621.5 1895C1607.88 1896.94 1595.05 1894.77 1583 1888.5C1584.3 1881.22 1587.3 1874.55 1592 1868.5L1621.5 1839C1631.98 1830.58 1642.31 1821.91 1652.5 1813C1668.46 1797.35 1679.96 1778.85 1687 1757.5Z" fill="#FDFDFD"/>
<path fill-rule="evenodd" clip-rule="evenodd" d="M1607.5 1679.5C1605.49 1680.92 1603.15 1681.59 1600.5 1681.5C1602.51 1680.08 1604.85 1679.41 1607.5 1679.5Z" fill="#585857"/>
<path fill-rule="evenodd" clip-rule="evenodd" d="M1921.5 1693.5C1920.89 1697.14 1920.55 1700.8 1920.5 1704.5C1919.1 1700.71 1919.43 1697.04 1921.5 1693.5Z" fill="#888483"/>
<path fill-rule="evenodd" clip-rule="evenodd" d="M2069.5 1719.5C2071.01 1720.68 2072.68 1721.68 2074.5 1722.5C2061.01 1723.83 2047.67 1723.83 2034.5 1722.5C2046.5 1722.67 2058.5 1722.5 2070.5 1722C2069.75 1721.33 2069.41 1720.5 2069.5 1719.5Z" fill="#B2B0B1"/>
<path fill-rule="evenodd" clip-rule="evenodd" d="M637.5 1716.5C637.556 1721.73 636.889 1726.73 635.5 1731.5C635.444 1726.27 636.111 1721.27 637.5 1716.5Z" fill="#9A9999"/>
<path fill-rule="evenodd" clip-rule="evenodd" d="M1330.5 2031.5C1331.33 2026.01 1331.83 2020.35 1332 2014.5C1332.5 1994.84 1332.67 1975.17 1332.5 1955.5C1332.5 1952.83 1332.5 1950.17 1332.5 1947.5C1334.99 1918.29 1336.15 1888.96 1336 1859.5C1338.62 1835.91 1339.95 1812.25 1340 1788.5C1342.38 1771.92 1343.72 1755.25 1344 1738.5C1344.89 1737.29 1345.73 1737.29 1346.5 1738.5C1349.15 1743.29 1351.32 1748.29 1353 1753.5C1396.49 1883.8 1438.82 2014.47 1480 2145.5C1493.48 2182.27 1505.15 2219.6 1515 2257.5C1515.67 2263.83 1515.67 2270.17 1515 2276.5C1505.2 2287.3 1495.03 2297.8 1484.5 2308C1433.51 2353.67 1381.34 2397.83 1328 2440.5C1345.65 2379.2 1371.98 2321.87 1407 2268.5C1414.96 2252.91 1423.12 2237.58 1431.5 2222.5C1424.08 2220.87 1417.58 2217.54 1412 2212.5C1403.87 2179.52 1396.87 2146.19 1391 2112.5C1390.33 2111.83 1389.67 2111.17 1389 2110.5C1388.15 2104.19 1387.49 2097.85 1387 2091.5C1386.21 2087.25 1384.38 2083.58 1381.5 2080.5C1368.95 2129.47 1357.78 2178.81 1348 2228.5C1340.9 2265.8 1334.23 2303.13 1328 2340.5C1327.67 2347.83 1327.33 2355.17 1327 2362.5C1325.33 2363.83 1323.67 2363.83 1322 2362.5C1323.04 2302.86 1323.7 2243.19 1324 2183.5C1326.38 2132.84 1328.55 2082.17 1330.5 2031.5Z" fill="#FDFDFD"/>
<path fill-rule="evenodd" clip-rule="evenodd" d="M1537.5 1735.5C1537.77 1740.43 1537.1 1745.1 1535.5 1749.5C1535.36 1744.59 1536.03 1739.92 1537.5 1735.5Z" fill="#47474A"/>
<path fill-rule="evenodd" clip-rule="evenodd" d="M2023 1780.01C2025.65 1779.92 2027.99 1780.59 2030 1782.01C2027.35 1782.1 2025.01 1781.43 2023 1780.01Z" fill="#878481"/>
<path fill-rule="evenodd" clip-rule="evenodd" d="M3359.5 1741.5C3359.83 1773.17 3359.5 1804.84 3358.5 1836.5C3357.89 1836.38 3357.56 1836.04 3357.5 1835.5C3358.17 1804.17 3358.83 1772.83 3359.5 1741.5Z" fill="#302C2D"/>
<path fill-rule="evenodd" clip-rule="evenodd" d="M2281.5 1812.5C2283.99 1812.3 2286.32 1812.8 2288.5 1814C2295.89 1819.72 2303.56 1825.06 2311.5 1830C2319.67 1836.83 2327.17 1844.33 2334 1852.5C2346.74 1869.65 2358.74 1887.31 2370 1905.5C2383.83 1929.83 2398.16 1953.83 2413 1977.5C2424.83 1993.33 2438.67 2007.17 2454.5 2019C2473.72 2031.21 2493.72 2032.88 2514.5 2024C2531.97 2016.28 2547.3 2005.61 2560.5 1992C2561.45 1991.52 2562.45 1991.35 2563.5 1991.5C2563.66 1993.2 2563.49 1994.87 2563 1996.5C2532.3 2075.93 2499.63 2154.6 2465 2232.5C2463.17 2230.84 2461.84 2228.84 2461 2226.5C2454 2208.5 2447 2190.5 2440 2172.5C2408.3 2085.07 2375.96 1997.74 2343 1910.5C2326.91 1877.44 2307.25 1846.77 2284 1818.5C2282.44 1816.78 2281.61 1814.78 2281.5 1812.5Z" fill="#FDFDFD"/>
<path fill-rule="evenodd" clip-rule="evenodd" d="M1171.5 2310.5C1170.83 2321.17 1170.17 2331.83 1169.5 2342.5C1162.8 2330.44 1156.64 2318.11 1151 2305.5C1144.25 2294.33 1137.25 2283.33 1130 2272.5C1107.83 2243.99 1083.83 2216.99 1058 2191.5C1054.1 2184.93 1049.43 2178.93 1044 2173.5C1017.17 2134.99 1011.84 2093.66 1028 2049.5C1032.63 2038.91 1038.29 2028.91 1045 2019.5C1051 2013.5 1057 2007.5 1063 2001.5C1071.89 1990.54 1077.39 1978.04 1079.5 1964C1078.41 1959.38 1076.91 1954.88 1075 1950.5C1068.39 1942.44 1061.23 1934.94 1053.5 1928C1037.22 1922.81 1022.22 1925.48 1008.5 1936C989.285 1952.94 976.618 1973.78 970.5 1998.5C969.076 2000.51 968.41 2002.85 968.5 2005.5C967.242 2008.69 966.576 2012.03 966.5 2015.5C964.922 2020.58 964.255 2025.92 964.5 2031.5C964.66 2033.2 964.494 2034.87 964 2036.5C963.577 2037.96 962.744 2038.46 961.5 2038C959.46 2034.09 957.293 2030.25 955 2026.5C948.607 1976.67 958.607 1930.33 985 1887.5C998.91 1864.92 1016.41 1845.42 1037.5 1829C1046.08 1823.05 1055.41 1818.71 1065.5 1816C1085.22 1811.88 1102.88 1815.88 1118.5 1828C1122.75 1831.58 1126.25 1835.75 1129 1840.5C1134.44 1856.05 1140.44 1871.38 1147 1886.5C1151.47 1889.97 1155.63 1893.8 1159.5 1898C1164.41 1899.49 1169.41 1899.83 1174.5 1899C1183.36 1893.74 1191.7 1887.74 1199.5 1881C1203.44 1878.85 1207.44 1877.02 1211.5 1875.5C1211.24 1897.53 1206.74 1918.53 1198 1938.5C1191.82 1948.19 1185.16 1957.52 1178 1966.5C1157.8 1987.31 1138.8 2008.98 1121 2031.5C1111.29 2046.63 1104.29 2062.97 1100 2080.5C1094.5 2117.78 1105 2149.61 1131.5 2176C1141.16 2184.29 1151.16 2184.62 1161.5 2177C1170.55 2167.21 1177.38 2156.05 1182 2143.5C1186.08 2132.03 1189.41 2120.36 1192 2108.5C1193.02 2105.79 1194.52 2103.46 1196.5 2101.5C1197.97 2102.38 1198.8 2103.71 1199 2105.5C1201.66 2120.13 1204.33 2134.8 1207 2149.5C1208.88 2168.18 1207.21 2186.51 1202 2204.5C1184.86 2237.75 1174.7 2273.08 1171.5 2310.5Z" fill="#FDFDFD"/>
<path fill-rule="evenodd" clip-rule="evenodd" d="M2666.5 1913.5C2666.67 1900.16 2666.5 1886.83 2666 1873.5C2665.88 1875.44 2665.05 1876.77 2663.5 1877.5C2663.38 1874.41 2664.38 1871.75 2666.5 1869.5C2667.83 1884.33 2667.83 1898.99 2666.5 1913.5Z" fill="#C0BEBB"/>
<path fill-rule="evenodd" clip-rule="evenodd" d="M2666.5 1913.5C2666.51 1926.22 2665.68 1938.89 2664 1951.5C2661.7 2071.49 2659.87 2191.49 2658.5 2311.5C2657.43 2320.99 2656.77 2330.65 2656.5 2340.5C2656.48 2351.19 2655.98 2361.85 2655 2372.5C2654.75 2373.62 2654.25 2374.62 2653.5 2375.5C2644.5 2347.68 2636 2319.68 2628 2291.5C2627.31 2283.4 2625.97 2275.4 2624 2267.5C2623.36 2232.46 2623.36 2197.46 2624 2162.5C2604.18 2198.39 2589.51 2236.39 2580 2276.5C2577.1 2290.83 2574.27 2305.16 2571.5 2319.5C2572.5 2324.33 2574 2328.99 2576 2333.5C2593.21 2365.59 2611.21 2397.26 2630 2428.5C2638.61 2445.38 2646.94 2462.38 2655 2479.5C2655.8 2481.26 2655.63 2482.93 2654.5 2484.5C2642.51 2473.04 2630.84 2461.21 2619.5 2449C2583.61 2415.44 2547.44 2382.27 2511 2349.5C2506.35 2344.86 2502.68 2339.53 2500 2333.5C2498.73 2324.87 2499.73 2316.54 2503 2308.5C2541.14 2222.56 2576.8 2135.56 2610 2047.5C2631.24 1991.88 2649.07 1935.22 2663.5 1877.5C2665.05 1876.77 2665.88 1875.44 2666 1873.5C2666.5 1886.83 2666.67 1900.16 2666.5 1913.5Z" fill="#FCFCFC"/>
<path d="M1971.5 1780C1988.18 1779.28 2004.85 1779.44 2021.5 1780.5C2023.51 1781.92 2025.85 1782.59 2028.5 1782.5C2073.22 1787.33 2116.88 1797.5 2159.5 1813C2200.09 1827.86 2234.26 1851.69 2262 1884.5C2274.11 1899.94 2285.44 1915.94 2296 1932.5C2314.42 1968.67 2330.09 2006.01 2343 2044.5C2367.76 2117.84 2391.76 2191.5 2415 2265.5C2418.09 2276.68 2420.92 2287.85 2423.5 2299C2422.19 2303.48 2420.69 2307.98 2419 2312.5C2417.83 2313.89 2416.33 2314.73 2414.5 2315C2386.15 2316.08 2357.82 2317.42 2329.5 2319C2235.5 2319.67 2141.5 2319.67 2047.5 2319C1999.85 2316.92 1952.18 2315.25 1904.5 2314C1861.53 2311.47 1818.53 2309.14 1775.5 2307C1750.8 2304.78 1726.13 2302.28 1701.5 2299.5C1697.08 2298.03 1692.41 2297.36 1687.5 2297.5H1686.5C1681.73 2296.11 1676.73 2295.44 1671.5 2295.5C1657.15 2293.92 1642.82 2292.09 1628.5 2290C1626.5 2288.67 1624.83 2287 1623.5 2285C1619.42 2283.21 1615.59 2281.05 1612 2278.5C1610.11 2274.21 1609.28 2269.71 1609.5 2265C1610.6 2253.82 1611.77 2242.65 1613 2231.5C1621.13 2210.1 1629.47 2188.77 1638 2167.5C1656.3 2127.24 1674.3 2086.91 1692 2046.5C1706.74 2017.34 1721.74 1988.34 1737 1959.5C1756.92 1925.99 1778.59 1893.66 1802 1862.5L1830.5 1834C1872.59 1803.63 1919.59 1785.63 1971.5 1780ZM2251 1951.5C2226.31 1915.42 2192.14 1900.75 2148.5 1907.5C2133.35 1912.24 2119.35 1919.41 2106.5 1929C2098.66 1936.5 2091.16 1944.34 2084 1952.5C2070.64 1972.91 2060.98 1994.91 2055 2018.5C2039.26 2085.33 2046.59 2149.33 2077 2210.5C2086.7 2225.53 2098.53 2238.7 2112.5 2250C2162.19 2279.09 2206.02 2271.93 2244 2228.5C2266.02 2198.47 2279.02 2164.8 2283 2127.5C2284.58 2099.51 2284.58 2071.51 2283 2043.5C2282.33 2042.17 2281.67 2040.83 2281 2039.5C2277.76 2007.87 2267.76 1978.53 2251 1951.5ZM1951.5 1920C1926.96 1906.71 1901.29 1903.71 1874.5 1911C1855.27 1918.57 1838.44 1929.73 1824 1944.5C1823.67 1945.83 1823.33 1947.17 1823 1948.5C1803.01 1969.8 1797.01 1994.46 1805 2022.5C1808.92 2027.41 1813.75 2031.25 1819.5 2034C1831.6 2036.83 1843.27 2035.49 1854.5 2030C1858.24 2026.46 1861.07 2022.29 1863 2017.5C1863.19 2012.65 1864.19 2007.99 1866 2003.5C1868.08 1997.59 1870.75 1991.92 1874 1986.5C1881.73 1973.73 1892.9 1966.06 1907.5 1963.5C1921.57 1965.9 1931.57 1973.57 1937.5 1986.5C1938.27 1987.26 1938.77 1988.26 1939 1989.5C1939.5 1993.82 1939.67 1998.15 1939.5 2002.5C1939.88 2009.32 1939.04 2015.99 1937 2022.5C1933.88 2030.74 1930.21 2038.74 1926 2046.5C1916.78 2061.06 1906.78 2075.06 1896 2088.5C1883.24 2102.59 1871.24 2117.25 1860 2132.5C1851.86 2139.31 1845.19 2147.31 1840 2156.5C1832 2165.83 1824 2175.17 1816 2184.5C1809.42 2194 1803.08 2203.66 1797 2213.5C1795.34 2218.82 1793.67 2224.16 1792 2229.5C1791.33 2232.83 1791.33 2236.17 1792 2239.5L1798 2251.5C1800.58 2254.14 1803.74 2255.64 1807.5 2256C1873.14 2258.77 1938.8 2259.77 2004.5 2259C2007.62 2257.94 2010.62 2256.61 2013.5 2255C2018.08 2248.87 2021.25 2242.03 2023 2234.5C2025.21 2206.21 2012.38 2194.54 1984.5 2199.5C1983.5 2200.17 1982.5 2200.83 1981.5 2201.5C1979.39 2202.47 1977.06 2202.8 1974.5 2202.5C1973.38 2203.16 1972.05 2203.49 1970.5 2203.5C1966.1 2201.99 1961.77 2200.66 1957.5 2199.5C1935.99 2199.83 1914.66 2199.5 1893.5 2198.5C1890.34 2191.08 1891.18 2184.08 1896 2177.5C1923.6 2144.9 1951.6 2112.56 1980 2080.5C1987.06 2069.76 1993.73 2058.76 2000 2047.5C2002.53 2040.9 2004.87 2034.23 2007 2027.5C2007.24 2019.4 2008.24 2011.4 2010 2003.5C2011.2 1977.98 2002.03 1956.81 1982.5 1940C1972.34 1933.08 1962 1926.42 1951.5 1920Z" fill="#FDFDFD"/>
<path fill-rule="evenodd" clip-rule="evenodd" d="M2947.5 2632.5C2948.89 2627.73 2949.56 2622.73 2949.5 2617.5C2951.98 2598.24 2953.81 2578.91 2955 2559.5C2959.17 2483.65 2955.17 2408.32 2943 2333.5C2932.61 2280.67 2917.95 2229 2899 2178.5C2872.39 2115.95 2843.06 2054.62 2811 1994.5C2798.86 1972.9 2786.2 1951.57 2773 1930.5C2771.59 1928.35 2770.76 1926.02 2770.5 1923.5C2776.36 1924.26 2781.7 1926.43 2786.5 1930C2809.48 1945.64 2831.31 1962.81 2852 1981.5C2862.59 1994.76 2873.93 2007.43 2886 2019.5C2940.24 2089.98 2977.9 2168.65 2999 2255.5C3032.96 2400.03 3024.63 2542.03 2974 2681.5C2951.27 2739.3 2924.1 2794.63 2892.5 2847.5C2891.35 2844.55 2891.18 2841.55 2892 2838.5C2906.27 2799.03 2918.93 2759.03 2930 2718.5C2937.08 2690.1 2942.92 2661.43 2947.5 2632.5Z" fill="#FDFDFD"/>
<path fill-rule="evenodd" clip-rule="evenodd" d="M3449.5 1920.5C3449.39 1925.71 3448.72 1930.71 3447.5 1935.5C3447.1 1930.22 3447.76 1925.22 3449.5 1920.5Z" fill="#B2B2B4"/>
<path fill-rule="evenodd" clip-rule="evenodd" d="M1332.5 1947.5C1332.5 1950.17 1332.5 1952.83 1332.5 1955.5C1331.83 1973.83 1331.17 1992.17 1330.5 2010.5C1330.33 1990.5 1330.5 1970.5 1331 1950.5C1331.23 1949.26 1331.73 1948.26 1332.5 1947.5Z" fill="#272324"/>
<path fill-rule="evenodd" clip-rule="evenodd" d="M2160.5 1967.5C2172.35 1965.85 2182.52 1969.18 2191 1977.5C2200.04 1991.02 2206.38 2005.68 2210 2021.5C2210.9 2029.99 2212.56 2038.32 2215 2046.5C2215.67 2070.83 2215.67 2095.17 2215 2119.5C2214.39 2141.26 2209.39 2161.93 2200 2181.5C2193.82 2191.34 2185.99 2199.51 2176.5 2206C2168.45 2208.55 2160.78 2207.89 2153.5 2204C2147.92 2199.33 2143.42 2193.83 2140 2187.5C2129.12 2164.64 2122.45 2140.64 2120 2115.5C2119.33 2093.83 2119.33 2072.17 2120 2050.5C2121.93 2040.87 2123.93 2031.2 2126 2021.5C2129.14 2008.98 2133.81 1996.98 2140 1985.5C2145.52 1977.8 2152.35 1971.8 2160.5 1967.5Z" fill="#FDFDFD"/>
<path fill-rule="evenodd" clip-rule="evenodd" d="M1937.5 1986.5C1938.27 1987.26 1938.77 1988.26 1939 1989.5C1939.5 1993.82 1939.67 1998.15 1939.5 2002.5C1938.62 1997.33 1937.95 1992 1937.5 1986.5Z" fill="#B5B6B9"/>
<path fill-rule="evenodd" clip-rule="evenodd" d="M970.5 1998.5C970.59 2001.15 969.924 2003.49 968.5 2005.5C968.41 2002.85 969.076 2000.51 970.5 1998.5Z" fill="#5A5A5A"/>
<path fill-rule="evenodd" clip-rule="evenodd" d="M1332.5 1955.5C1332.67 1975.17 1332.5 1994.84 1332 2014.5C1331.83 2020.35 1331.33 2026.01 1330.5 2031.5C1330.5 2024.5 1330.5 2017.5 1330.5 2010.5C1331.17 1992.17 1331.83 1973.83 1332.5 1955.5Z" fill="#CFC9CB"/>
<path fill-rule="evenodd" clip-rule="evenodd" d="M966.5 2015.5C966.473 2021.05 965.806 2026.38 964.5 2031.5C964.255 2025.92 964.922 2020.58 966.5 2015.5Z" fill="#4E4F59"/>
<path fill-rule="evenodd" clip-rule="evenodd" d="M3335.5 2058.5C3337.04 2064.94 3337.71 2071.6 3337.5 2078.5C3336.3 2072.03 3335.64 2065.36 3335.5 2058.5Z" fill="#4C4A48"/>
<path fill-rule="evenodd" clip-rule="evenodd" d="M1119.5 3055.5C1119.55 3049.61 1118.88 3043.94 1117.5 3038.5C1111.21 2957.3 1130.71 2882.97 1176 2815.5C1183.05 2806.78 1189.72 2797.78 1196 2788.5C1212.53 2771.64 1229.36 2755.14 1246.5 2739C1295.11 2701.51 1350.11 2680.01 1411.5 2674.5C1423.5 2674.03 1435.5 2673.7 1447.5 2673.5C1482.26 2674.25 1515.6 2681.42 1547.5 2695C1564.07 2702.28 1580.07 2710.62 1595.5 2720C1619.39 2735.21 1641.56 2752.71 1662 2772.5C1689.3 2804.09 1709.63 2839.75 1723 2879.5C1725.98 2890.75 1728.65 2902.09 1731 2913.5C1738.48 2976 1724.14 3032.67 1688 3083.5C1673.81 3098.69 1659.31 3113.52 1644.5 3128C1598.1 3160.62 1547.77 3168.95 1493.5 3153C1444 3137.5 1414.17 3104.34 1404 3053.5C1402.83 3026.34 1410.5 3002.01 1427 2980.5C1432.77 2976.73 1437.1 2971.73 1440 2965.5C1441.93 2962.9 1443.76 2962.9 1445.5 2965.5C1433.39 2989.33 1428.89 3014.67 1432 3041.5C1447.28 3088.43 1479.44 3115.6 1528.5 3123C1546 3125.06 1563 3123.06 1579.5 3117C1599.78 3108.69 1617.95 3097.19 1634 3082.5C1668.81 3042.74 1684.48 2996.4 1681 2943.5C1679.02 2921.63 1673.02 2900.96 1663 2881.5C1628.87 2827.99 1581.04 2792.82 1519.5 2776C1487.41 2767.23 1454.75 2764.23 1421.5 2767C1368.87 2776.87 1323.87 2800.71 1286.5 2838.5C1284.67 2840.15 1283.34 2842.15 1282.5 2844.5C1247.27 2885.99 1226.43 2933.99 1220 2988.5C1214.49 3050.93 1226.15 3109.93 1255 3165.5C1268.1 3190.05 1283.43 3213.05 1301 3234.5C1324.33 3259.5 1349.16 3282.67 1375.5 3304C1462.45 3366.63 1558.79 3408.29 1664.5 3429C1845.58 3462.56 2020.58 3443.39 2189.5 3371.5C2191.97 3371.25 2193.97 3370.25 2195.5 3368.5C2231.08 3351.91 2266.08 3334.08 2300.5 3315C2348.34 3285.52 2391.84 3250.35 2431 3209.5C2449.4 3186.38 2466.06 3162.05 2481 3136.5C2485.07 3129.04 2488.57 3121.37 2491.5 3113.5C2491.17 3112.83 2490.83 3112.17 2490.5 3111.5C2418.62 3182.95 2333.96 3233.12 2236.5 3262C2219.92 3265.36 2203.25 3268.36 2186.5 3271C2170.17 3271.67 2153.83 3271.67 2137.5 3271C2130.34 3269.17 2123.01 3267.84 2115.5 3267C2115.04 3266.59 2114.71 3266.09 2114.5 3265.5C2139.43 3253.04 2164.43 3240.54 2189.5 3228C2227.07 3206.39 2262.74 3182.05 2296.5 3155C2333.5 3124.34 2369 3091.84 2403 3057.5C2428.04 3031.07 2452.37 3004.07 2476 2976.5C2505.64 2939.2 2533.3 2900.54 2559 2860.5C2595.3 2799.21 2624.64 2734.54 2647 2666.5C2649.33 2657.18 2651.66 2647.84 2654 2638.5C2654.89 2633.53 2655.55 2628.53 2656 2623.5C2657.5 2622 2659 2620.5 2660.5 2619C2661.45 2618.38 2662.28 2618.55 2663 2619.5C2670.83 2752.98 2642.83 2877.98 2579 2994.5C2578.51 2996.13 2578.34 2997.8 2578.5 2999.5C2579.55 2999.65 2580.55 2999.48 2581.5 2999C2590.33 2990.17 2599.17 2981.33 2608 2972.5C2624.67 2950.5 2641.33 2928.5 2658 2906.5C2725.31 2799.32 2771.98 2683.32 2798 2558.5C2802.57 2531.84 2807.07 2505.17 2811.5 2478.5C2812.89 2473.73 2813.56 2468.73 2813.5 2463.5C2814.96 2458.4 2815.62 2453.07 2815.5 2447.5C2815.58 2423.3 2816.24 2399.13 2817.5 2375C2816.47 2343.84 2815.64 2312.67 2815 2281.5C2811.94 2256.05 2807.94 2230.72 2803 2205.5C2795.07 2173.55 2786.24 2141.89 2776.5 2110.5C2779.12 2109.88 2781.29 2110.88 2783 2113.5C2789.55 2126.26 2796.88 2138.6 2805 2150.5C2830.56 2195.86 2850.22 2243.53 2864 2293.5C2870.84 2320.23 2875.84 2347.23 2879 2374.5C2879.71 2391.55 2881.04 2408.55 2883 2425.5C2884.51 2463.27 2883.17 2500.94 2879 2538.5C2869.8 2614.29 2854.13 2688.63 2832 2761.5C2791.39 2872.09 2735.72 2974.09 2665 3067.5C2547.07 3223.13 2400.24 3342.97 2224.5 3427C2042.44 3509.47 1852.44 3534.14 1654.5 3501C1545.05 3481.09 1443.39 3441.75 1349.5 3383C1310.39 3356.91 1273.89 3327.41 1240 3294.5C1219.87 3272.37 1201.21 3249.04 1184 3224.5C1159.36 3185.6 1140.69 3143.94 1128 3099.5C1124.21 3085 1121.37 3070.33 1119.5 3055.5Z" fill="#FDFDFD"/>
<path fill-rule="evenodd" clip-rule="evenodd" d="M746.5 2175.5C747.819 2182.34 747.819 2189.34 746.5 2196.5C745.893 2196.38 745.56 2196.04 745.5 2195.5C746.491 2189.02 746.824 2182.35 746.5 2175.5Z" fill="#6B696A"/>
<path fill-rule="evenodd" clip-rule="evenodd" d="M1983.5 2198.5C1974.82 2198.58 1966.15 2198.92 1957.5 2199.5C1935.99 2199.83 1914.66 2199.5 1893.5 2198.5C1923.68 2198.32 1953.68 2198.32 1983.5 2198.5Z" fill="#7B7874"/>
<path fill-rule="evenodd" clip-rule="evenodd" d="M1983.5 2198.5C1984.17 2198.5 1984.5 2198.83 1984.5 2199.5C1983.5 2200.17 1982.5 2200.83 1981.5 2201.5C1980.85 2200.27 1979.68 2199.61 1978 2199.5C1975.9 2199.79 1974.06 2200.62 1972.5 2202C1973.09 2202.46 1973.76 2202.63 1974.5 2202.5C1973.38 2203.16 1972.05 2203.49 1970.5 2203.5C1966.1 2201.99 1961.77 2200.66 1957.5 2199.5C1966.15 2198.92 1974.82 2198.58 1983.5 2198.5Z" fill="#2A261B"/>
<path fill-rule="evenodd" clip-rule="evenodd" d="M1981.5 2201.5C1979.39 2202.47 1977.06 2202.8 1974.5 2202.5C1973.76 2202.63 1973.09 2202.46 1972.5 2202C1974.06 2200.62 1975.9 2199.79 1978 2199.5C1979.68 2199.61 1980.85 2200.27 1981.5 2201.5Z" fill="#5D5C43"/>
<path fill-rule="evenodd" clip-rule="evenodd" d="M3337.5 2196.5C3337.47 2202.05 3336.81 2207.38 3335.5 2212.5C3335.38 2206.93 3336.04 2201.6 3337.5 2196.5Z" fill="#9E9E9D"/>
<path fill-rule="evenodd" clip-rule="evenodd" d="M1671.5 2295.5C1676.73 2295.44 1681.73 2296.11 1686.5 2297.5C1681.27 2297.56 1676.27 2296.89 1671.5 2295.5Z" fill="#A3A3A3"/>
<path fill-rule="evenodd" clip-rule="evenodd" d="M1687.5 2297.5C1692.41 2297.36 1697.08 2298.03 1701.5 2299.5C1696.59 2299.64 1691.92 2298.97 1687.5 2297.5Z" fill="#979797"/>
<path fill-rule="evenodd" clip-rule="evenodd" d="M982.5 2302.5C987.232 2302.38 991.898 2302.88 996.5 2304C1003.43 2308.58 1005.26 2314.75 1002 2322.5C999.408 2325.76 996.241 2328.26 992.5 2330C990.365 2330.63 988.365 2330.3 986.5 2329C981.95 2326.12 978.45 2322.28 976 2317.5C975.422 2311.32 977.589 2306.32 982.5 2302.5Z" fill="#F8F9F9"/>
<path fill-rule="evenodd" clip-rule="evenodd" d="M1171.5 2310.5C1171.83 2321.52 1171.5 2332.52 1170.5 2343.5C1169.89 2343.38 1169.56 2343.04 1169.5 2342.5C1170.17 2331.83 1170.83 2321.17 1171.5 2310.5Z" fill="#BEBDBF"/>
<path fill-rule="evenodd" clip-rule="evenodd" d="M3166.5 2320.5C3173.76 2321.2 3178.92 2324.87 3182 2331.5C3182.01 2338.29 3178.84 2343.13 3172.5 2346C3165.75 2348.27 3161.25 2346.11 3159 2339.5C3156.77 2334.93 3157.1 2330.6 3160 2326.5C3162.34 2324.6 3164.5 2322.6 3166.5 2320.5Z" fill="#F4F5F5"/>
<path fill-rule="evenodd" clip-rule="evenodd" d="M2658.5 2311.5C2658.67 2318.84 2658.5 2326.17 2658 2333.5C2657.81 2336.04 2657.31 2338.37 2656.5 2340.5C2656.77 2330.65 2657.43 2320.99 2658.5 2311.5Z" fill="#37373A"/>
<path fill-rule="evenodd" clip-rule="evenodd" d="M1809.5 2347.5C1837.36 2348.3 1865.02 2349.64 1892.5 2351.5C1864.64 2351.26 1836.97 2349.92 1809.5 2347.5Z" fill="#3E3B3A"/>
<path fill-rule="evenodd" clip-rule="evenodd" d="M1558.5 2350.5C1560.39 2350.3 1561.89 2350.96 1563 2352.5C1580.84 2380.18 1599.17 2407.51 1618 2434.5C1663.84 2498.85 1710.18 2562.85 1757 2626.5C1798.15 2679.66 1840.82 2731.66 1885 2782.5C1887.07 2784.45 1887.74 2786.79 1887 2789.5C1854.62 2768.35 1821.12 2748.19 1786.5 2729C1769.23 2718.74 1754.06 2705.9 1741 2690.5C1715 2648.49 1685.17 2609.32 1651.5 2573C1640.87 2564.71 1630.54 2556.04 1620.5 2547C1588.53 2525.84 1555.19 2507.01 1520.5 2490.5C1520.35 2491.55 1520.52 2492.55 1521 2493.5C1530.73 2502.56 1539.73 2512.23 1548 2522.5C1567.38 2546.21 1586.38 2570.21 1605 2594.5C1629.31 2618.81 1653.64 2643.14 1678 2667.5C1679.01 2669.02 1679.51 2670.69 1679.5 2672.5C1677.35 2672.63 1675.35 2672.13 1673.5 2671C1655.66 2659.25 1637.33 2648.25 1618.5 2638C1556.45 2605.14 1494.78 2571.47 1433.5 2537C1405.45 2523.14 1377.79 2508.48 1350.5 2493C1347.98 2490.65 1345.65 2488.15 1343.5 2485.5C1353.74 2481.55 1363.74 2476.72 1373.5 2471C1435.57 2431.31 1497.24 2391.14 1558.5 2350.5Z" fill="#FDFDFD"/>
<path fill-rule="evenodd" clip-rule="evenodd" d="M2090.5 2356.5C2102.04 2356.25 2113.37 2356.92 2124.5 2358.5C2112.97 2358.56 2101.64 2357.9 2090.5 2356.5Z" fill="#726C65"/>
<path d="M1613.5 2339.5C1629.17 2339.52 1644.84 2340.68 1660.5 2343C1692.57 2343.09 1724.57 2344.42 1756.5 2347C1774.16 2347.5 1791.83 2347.67 1809.5 2347.5C1836.97 2349.92 1864.64 2351.26 1892.5 2351.5C1958.48 2353.83 2024.48 2355.5 2090.5 2356.5C2101.64 2357.9 2112.97 2358.56 2124.5 2358.5C2215.2 2359.03 2305.87 2361.19 2396.5 2365C2400.14 2366.27 2403.81 2367.44 2407.5 2368.5C2394.57 2384.68 2381.41 2400.68 2368 2416.5C2349.94 2434.22 2332.28 2452.22 2315 2470.5C2284.31 2509.54 2250.98 2546.54 2215 2581.5C2192.25 2607.64 2168.59 2632.97 2144 2657.5C2130.43 2674.07 2115.77 2689.74 2100 2704.5C2086.45 2722.06 2071.45 2738.39 2055 2753.5C2049.19 2762.76 2042.19 2771.09 2034 2778.5C2026.38 2788.46 2018.38 2798.12 2010 2807.5C2004.83 2811.33 2000.33 2815.83 1996.5 2821C1989.06 2825.09 1982.56 2823.92 1977 2817.5C1944.6 2768.77 1910.27 2721.43 1874 2675.5C1853.43 2646.93 1832.1 2618.93 1810 2591.5C1777.95 2549.78 1746.28 2507.78 1715 2465.5C1693.09 2438.68 1671.43 2411.68 1650 2384.5L1640 2374.5C1630.97 2362.98 1622.14 2351.31 1613.5 2339.5ZM2048.5 2419C2025.71 2412.01 2002.38 2409.51 1978.5 2411.5C1971.78 2413.88 1964.78 2415.72 1957.5 2417C1935.06 2426.44 1918.89 2442.27 1909 2464.5C1901.66 2496.41 1911.49 2521.24 1938.5 2539C1938.24 2540.26 1937.57 2541.26 1936.5 2542C1933.5 2543.17 1930.83 2544.83 1928.5 2547C1918.72 2555.76 1910.89 2565.93 1905 2577.5C1894.18 2606.94 1899.02 2633.6 1919.5 2657.5C1924.81 2662.16 1930.48 2666.32 1936.5 2670C1959.55 2682.43 1984.22 2687.43 2010.5 2685C2016.44 2683.86 2022.44 2683.19 2028.5 2683C2044.77 2679.24 2059.77 2672.58 2073.5 2663C2088.62 2646.83 2097.29 2627.66 2099.5 2605.5C2097.89 2588.5 2092.06 2573.17 2082 2559.5C2075.29 2552.62 2068.46 2545.96 2061.5 2539.5C2068.26 2535.7 2074.42 2531.03 2080 2525.5C2081.29 2523.21 2082.96 2521.21 2085 2519.5C2106.94 2473.84 2094.77 2440.34 2048.5 2419Z" fill="#FEFEFD"/>
<path fill-rule="evenodd" clip-rule="evenodd" d="M2457.5 2411.5C2471.7 2409.22 2484.7 2412.06 2496.5 2420C2535.21 2451.05 2574.21 2481.71 2613.5 2512C2622.04 2518.04 2630.7 2523.87 2639.5 2529.5C2585 2553.24 2531 2578.41 2477.5 2605C2434.17 2629 2390.83 2653 2347.5 2677C2345.42 2677.81 2343.42 2677.64 2341.5 2676.5C2342.98 2674.52 2344.65 2672.68 2346.5 2671C2355.88 2663.28 2365.55 2655.95 2375.5 2649C2381.58 2642.13 2388.58 2636.47 2396.5 2632C2429.39 2602.55 2465.39 2577.55 2504.5 2557C2505.69 2555.98 2506.69 2554.81 2507.5 2553.5C2506.67 2553.17 2505.83 2552.83 2505 2552.5C2458.65 2565.28 2414.15 2582.78 2371.5 2605C2337.09 2624.76 2303.76 2646.09 2271.5 2669C2241.13 2694.19 2211.13 2719.86 2181.5 2746C2154.89 2767.31 2126.89 2786.64 2097.5 2804C2091.81 2807.35 2085.81 2809.85 2079.5 2811.5C2079.42 2810.07 2079.75 2808.74 2080.5 2807.5C2088.15 2800.35 2095.65 2793.01 2103 2785.5C2109.92 2775.91 2117.58 2766.91 2126 2758.5C2150.33 2734.17 2174.67 2709.83 2199 2685.5C2219.96 2661.87 2241.63 2638.87 2264 2616.5C2286.16 2589 2309.82 2562.67 2335 2537.5C2348.67 2521.17 2362.33 2504.83 2376 2488.5C2386.82 2479.02 2396.16 2468.35 2404 2456.5C2415.5 2445 2427 2433.5 2438.5 2422C2444.77 2418.2 2451.1 2414.7 2457.5 2411.5Z" fill="#FDFDFD"/>
<path fill-rule="evenodd" clip-rule="evenodd" d="M1993.5 2450.5C2026.18 2447.35 2041.68 2462.02 2040 2494.5C2037.84 2502.65 2033.34 2509.15 2026.5 2514C2014.36 2519.36 2001.7 2521.36 1988.5 2520C1968.04 2514.28 1959.21 2500.78 1962 2479.5C1966 2462.66 1976.5 2453 1993.5 2450.5Z" fill="#FBFBFB"/>
<path fill-rule="evenodd" clip-rule="evenodd" d="M2815.5 2447.5C2815.62 2453.07 2814.96 2458.4 2813.5 2463.5C2813.53 2457.95 2814.19 2452.62 2815.5 2447.5Z" fill="#AFAEAC"/>
<path fill-rule="evenodd" clip-rule="evenodd" d="M2813.5 2463.5C2813.56 2468.73 2812.89 2473.73 2811.5 2478.5C2811.3 2473.25 2811.97 2468.25 2813.5 2463.5Z" fill="#A8A7A8"/>
<path fill-rule="evenodd" clip-rule="evenodd" d="M1100.5 2514.5C1103.04 2514.1 1105.21 2514.77 1107 2516.5C1108.77 2526.14 1110.44 2535.81 1112 2545.5C1113.86 2552.7 1118.02 2558.2 1124.5 2562C1130.49 2563.99 1136.49 2565.99 1142.5 2568C1143.34 2569.01 1143.67 2570.18 1143.5 2571.5C1135.72 2573.87 1128.06 2576.7 1120.5 2580C1117.53 2582.73 1114.69 2585.56 1112 2588.5C1111.29 2594 1109.96 2599.33 1108 2604.5C1107.67 2609.17 1107.33 2613.83 1107 2618.5C1103.59 2620.22 1101.26 2619.22 1100 2615.5C1099.67 2608.83 1099.33 2602.17 1099 2595.5C1097.83 2593.17 1096.67 2590.83 1095.5 2588.5C1085.87 2579.77 1074.71 2574.77 1062 2573.5C1061.37 2571.1 1062.2 2569.26 1064.5 2568C1092.97 2561.35 1104.97 2543.52 1100.5 2514.5Z" fill="#F8F9F9"/>
<path fill-rule="evenodd" clip-rule="evenodd" d="M1982.5 2563.5C1996.23 2563.07 2009.89 2563.57 2023.5 2565C2039.04 2572.57 2046.54 2585.07 2046 2602.5C2041.24 2618.93 2030.74 2629.76 2014.5 2635C2008.2 2636.33 2001.86 2637.49 1995.5 2638.5C1963.28 2636.42 1950.45 2619.42 1957 2587.5C1959.4 2581.87 1962.9 2577.04 1967.5 2573C1972.56 2569.81 1977.56 2566.64 1982.5 2563.5Z" fill="#FCFCFC"/>
<path fill-rule="evenodd" clip-rule="evenodd" d="M2949.5 2617.5C2949.56 2622.73 2948.89 2627.73 2947.5 2632.5C2947.44 2627.27 2948.11 2622.27 2949.5 2617.5Z" fill="#ACABAB"/>
<path fill-rule="evenodd" clip-rule="evenodd" d="M1447.5 2673.5C1435.5 2673.7 1423.5 2674.03 1411.5 2674.5C1423.47 2672.59 1435.47 2672.26 1447.5 2673.5Z" fill="#838180"/>
<path fill-rule="evenodd" clip-rule="evenodd" d="M935.5 2756.5C938.777 2756.22 941.943 2756.55 945 2757.5C950.838 2766.37 949.338 2773.54 940.5 2779C929.073 2782.08 923.573 2777.91 924 2766.5C926.818 2761.84 930.651 2758.51 935.5 2756.5Z" fill="#F7F8F8"/>
<path fill-rule="evenodd" clip-rule="evenodd" d="M1286.5 2838.5C1286.16 2841.2 1284.82 2843.2 1282.5 2844.5C1283.34 2842.15 1284.67 2840.15 1286.5 2838.5Z" fill="#585757"/>
<path fill-rule="evenodd" clip-rule="evenodd" d="M2309.5 2858.5C2322.93 2857.1 2328.77 2863.1 2327 2876.5C2324.69 2881.61 2321.53 2886.11 2317.5 2890C2309.86 2892.92 2303.69 2891.09 2299 2884.5C2296 2872.96 2299.5 2864.29 2309.5 2858.5Z" fill="#F5F5F5"/>
<path fill-rule="evenodd" clip-rule="evenodd" d="M2960.5 2979.5C2965.84 2979.33 2971.18 2979.5 2976.5 2980C2982.96 2981.76 2985.13 2985.92 2983 2992.5C2978.68 3001.74 2971.52 3005.24 2961.5 3003C2955.46 2999.55 2953.29 2994.38 2955 2987.5C2956.1 2984.28 2957.94 2981.61 2960.5 2979.5Z" fill="#F8F9F9"/>
<path fill-rule="evenodd" clip-rule="evenodd" d="M1117.5 3038.5C1118.88 3043.94 1119.55 3049.61 1119.5 3055.5C1118.12 3050.06 1117.45 3044.39 1117.5 3038.5Z" fill="#4B4847"/>
<path fill-rule="evenodd" clip-rule="evenodd" d="M1980.5 3131.5C2020.89 3127.77 2049.72 3144.1 2067 3180.5C2077.23 3225.2 2061.4 3257.04 2019.5 3276C1988.39 3285.25 1961.22 3278.75 1938 3256.5C1915.26 3226.66 1913.6 3195.66 1933 3163.5C1939.81 3156.36 1946.98 3149.52 1954.5 3143C1962.91 3138.48 1971.58 3134.65 1980.5 3131.5Z" fill="#FDFDFD"/>
<path fill-rule="evenodd" clip-rule="evenodd" d="M1800.5 3208.5C1835.91 3207.27 1859.41 3223.27 1871 3256.5C1874.58 3284.5 1864.74 3306.34 1841.5 3322C1810.36 3335.84 1783.2 3330.34 1760 3305.5C1745.55 3282.51 1744.88 3259.18 1758 3235.5C1768.81 3221.02 1782.98 3212.02 1800.5 3208.5Z" fill="#FDFDFD"/>
<path fill-rule="evenodd" clip-rule="evenodd" d="M1644.5 3244.5C1665.23 3243.73 1678.06 3253.4 1683 3273.5C1684.46 3305.37 1669.3 3319.2 1637.5 3315C1625.43 3310.59 1617.93 3302.09 1615 3289.5C1613.31 3266.86 1623.14 3251.86 1644.5 3244.5Z" fill="#FBFCFC"/>
<path fill-rule="evenodd" clip-rule="evenodd" d="M2717.5 3270.5C2727.63 3272.8 2730.13 3278.46 2725 3287.5C2720.97 3292.36 2716.63 3292.7 2712 3288.5C2709.86 3286.19 2708.36 3283.53 2707.5 3280.5C2709.85 3276.15 2713.19 3272.81 2717.5 3270.5Z" fill="#F6F6F7"/>
<path fill-rule="evenodd" clip-rule="evenodd" d="M2195.5 3369.5C2193.97 3371.25 2191.97 3372.25 2189.5 3372.5C2191.03 3370.75 2193.03 3369.75 2195.5 3369.5Z" fill="#9F9F9F"/>
</svg>
